<?xml version="1.0" encoding="UTF-8"?>
<svg width="64" height="64" viewBox="0 0 64 64" xmlns="http://www.w3.org/2000/svg">
  <!-- Office Building Icon -->
  <rect x="8" y="32" width="48" height="24" fill="currentColor" stroke="none"/>
  <rect x="12" y="36" width="8" height="8" fill="white" opacity="0.8"/>
  <rect x="24" y="36" width="8" height="8" fill="white" opacity="0.8"/>
  <rect x="36" y="36" width="8" height="8" fill="white" opacity="0.8"/>
  <rect x="48" y="36" width="8" height="8" fill="white" opacity="0.8"/>
  <rect x="12" y="48" width="8" height="8" fill="white" opacity="0.8"/>
  <rect x="24" y="48" width="8" height="8" fill="white" opacity="0.8"/>
  <rect x="36" y="48" width="8" height="8" fill="white" opacity="0.8"/>
  <rect x="48" y="48" width="8" height="8" fill="white" opacity="0.8"/>
  
  <!-- Roof -->
  <polygon points="8,32 32,16 56,32" fill="currentColor" stroke="none"/>
  
  <!-- Door -->
  <rect x="28" y="44" width="8" height="12" fill="white" opacity="0.9"/>
  
  <!-- Windows -->
  <rect x="14" y="20" width="4" height="4" fill="white" opacity="0.7"/>
  <rect x="26" y="20" width="4" height="4" fill="white" opacity="0.7"/>
  <rect x="38" y="20" width="4" height="4" fill="white" opacity="0.7"/>
  <rect x="50" y="20" width="4" height="4" fill="white" opacity="0.7"/>
</svg>
